/* XPM */
static char *ea567cbb5a1f43adf5ee510da507607c2HbajAIUEOdIRcyk[] = {
/* columns rows colors chars-per-pixel */
"64 64 81 1 ",
"  c black",
". c #161F1E",
"X c #1A1A18",
"o c #1D1918",
"O c #1B1A1F",
"+ c #1D1D1D",
"@ c #2B242C",
"# c #423B42",
"$ c #463A45",
"% c #50454E",
"& c #504F4D",
"* c #524F51",
"= c #544E51",
"- c #535051",
"; c #545051",
": c #5F5C5D",
"> c #625D5B",
", c #605C5C",
"< c #645F5F",
"1 c #6B636B",
"2 c #6B6768",
"3 c #6D676E",
"4 c #6C6B69",
"5 c #6D6C6A",
"6 c #6F6B6C",
"7 c #6C6C6F",
"8 c #70676C",
"9 c #726D6E",
"0 c #777674",
"q c #7A7274",
"w c #7A7677",
"e c #7C7577",
"r c #797876",
"t c #7A7879",
"y c #7C787A",
"u c #8F3244",
"i c #FEDF73",
"p c #FEDD76",
"a c #FDDB79",
"s c #FEDE7B",
"d c #FFE073",
"f c #FFE075",
"g c #FFE079",
"h c #FEE678",
"j c #8B7E84",
"k c #7ED0C2",
"l c #63EDD6",
"z c #61FCD4",
"x c #66F0D9",
"c c #66F4DA",
"v c #67F5DD",
"b c #69F5DB",
"n c #6BF3DD",
"m c #69F4DD",
"M c #66F5E1",
"N c #6CF7E0",
"B c #8B8181",
"V c #8A8085",
"C c #978B8C",
"Z c #938F8E",
"A c #92918F",
"S c #97918F",
"D c #DAC991",
"F c #FFDE80",
"G c #988DC7",
"H c #978FCB",
"J c #978ECD",
"K c #988ECB",
"L c #988DCF",
"P c #9691C9",
"I c #978DD2",
"U c #9C8DD2",
"Y c #988CD4",
"T c #FD94CF",
"R c #F696D3",
"E c #F892D1",
"W c #FD93D3",
"Q c #FA91D4",
"! c #FD93D5",
"~ c #FE94D6",
"^ c #FFFDFF",
/* pixels */
"uuuuuuuuuuuuuuuuuuuuuuuuuuuuuu uuuuuuuuuuuuuuuuuuuuuuuuuuuuuuuuu",
"uuuuuuuuuuuuuuuuuuuuuuuuuuuuuu uuuuuuuuuuuuuuuuuuuuuuuuuuuuuuuuu",
"uuuuuuuuuuuuuuuuuuuuuuuuuuuuuu uuuuuuuuuuuuuuuuuuuuuuuuuuuuuuuuu",
"uuuuuuuuuuuuuuuuuuuuuuuuuuuuuu uuuuuuuuuuuuuuuuuuuuuuuuuuuuuuuuu",
"uuuuuuuuuuuuuuuuuuuuuuuuuuuuuu uuuuuuuuuuuuuuuuuuuuuuuuuuuuuuuuu",
"uuuuuuuuuuuuuuuuuuuuuuumuuuuuu uuuuuuuuuuuuuuuuuuuuuuuuuuuuuuuuu",
"uuuuuuuuuuuuuuuuuuuuuumumuuuuu uuuuuuuuuuuuuuuuuuuuuuuuuuuuuuuuu",
"uuuuuuuuuuuuuuuuuuuuuuumuuuuuu uuuuuuuuuuuuuuuuuuuuuuuuuuuuuuuuu",
"uuuuuuuuuuuuuuuuuuuuuuuuuuuu o .+ uuuuuuuuuuuuuuuuuuuuuuuuuuuuuu",
"uuuuuuuuuuuuuuuuuuuuuuuuuuu ^WmW^n uuuuuEuuuuuuuuuuuuuuuuuuuuuuu",
"uuuuuuuuuuuuuuuuuuuuuuuuuu PbN^vagR uuuEuEuuuuuuuuuuuuuuuuuuuuuu",
"uuuuuuuuuuuuuuuuuuuuuuuuu L^s!!ggbJE uuuEuuuuuuuuuuuuuuuuuuuuuuu",
"uuuuuuuuuuuuuuuuuuuuuuuuu ^ff!QfgmzIXuuuuuuuuuuuuuuuuuuuuuuuuuuu",
"uuuuuuuuuuuuuuuuuuuuuuuuu bKK^^KKEEf@uuuuuuuuuuuuuuuuuuuuuuuuuuu",
"uuuuuuuuuuuuuuuuuuuuuuuuu ^~WKKvxKHxXuuuuuuuuuuuuuuuuuuuuuuuuuuu",
"uuuuuuuuuuuuuuuuuuuuuuuuu Kxvff~~fFWOuuuuuuuuuuuuuuuuuuuuuuuuuuu",
"uuuuuuuuuuuuuuuuuuuuuuuuu TYMdi!!pTG uuuuuuuuuuuuuuuuuuuuuuuuuuu",
"uuuuuuuuuuuuuuuuuuuuuuuuu J~gpmLlmUJ uuuuuuuuuuuuuuuuuuuuuuuuuuu",
"uuuuuuuuuuuuuuuuuuuuuuuuuu kcKWvWhD uuuuuuuuuuuuuuuuuuuuuuuuuuuu",
"uuuuuuuuuuuuuuuuuuuuuuuuuuu xJEvEs uuuPuuuuuuuuuuuuuuuuuuuuuuuuu",
"uuuuuuuuuuuuuuuuuuuuuuuuuuuu      uuuPuPuuuuuuuuuuuuuuuuuuuuuuuu",
"uuuuuuuuuuuuuuuuuuuuuuuuuuuuuuuuuuuuuuPuuuuuuuuuuuuuuuuuuuuuuuuu",
"uuuuuuuuuuuuuuuuuuuuuuuuuFuuuuuuuuuuuuuuuuuuuuuuuuuuuuuuuuuuuuuu",
"uuuuuuuuuuuuuuuuuuuuuuuuFuFuuuuuuuuuuuuuuuuuuuuuuuuuuuuuuuuuuuuu",
"uuuuuuuuuuuuuuuuuuuuuuuuuFuuuuuuuuuuuuuuuuuuuuuuuuuuuuuuuuuuuuuu",
"uuuuuuuuuuuuuuuuuuuuuuuuuuuuuuuuuuuuuuuuuuuuuuuuuuuuuuuuuuuuuuuu",
"uuuuuuuuuuuuuuuuuuuuuuuuuuuuuuuuuuuuuuuuuuuuuuuuuuuuuuuuuuuuuuuu",
"uuuuuuuuuuuuuuuuuuuuuuuuuuuuuuuuuuuuuuuuuuuuuuuuuuuuuuuuuuuuuuuu",
"uuuuuuuuuuuuuuuuuuuuuuuuuuuuuuuuuuuuuuuuuuuuuuuuuuuuuuuuuuuuuuuu",
"uuuuuuuuuuuuuuuuuuuuuuuuuuuuuuuuuuuuuuuuuuuuuuuuuuuuuuuuuuuuuuuu",
"uuuuuuuuuuuuuuuuuuuuuuuuuuuuuuuuuuuuuuuuuuuuuuuuuuuuuuuuuuuuuuuu",
"uuuuuuuuuuuuuuuuuuuuuuuuuuuuuuuuuuuuuuuuuuuuuuuuuuuuuuuuuuuuuuuu",
"uuuuuuuuuuuuuuuuuuuuuuuuuuuuuuuuuuuuuuuuuuuuuuuuuuuuuuuuuuuuuuuu",
"uuuuuuuuuuuuuuuuuuuuuuuuuuuuuuuuuuuuuuuuuuuuuuuuuuuuuuuuuuuuuuuu",
"uuuuuuuuuuuuuuuuuuuuuuuuuuuuuuuuuuuuuuuuuuuuuuuuuuuuuuuuuuuuuuuu",
"uuuuuuuuuuuuuuuuuuuuuuuuuuuuuuuuuuuuuuuuuuuuuuuuuuuuuuuuuuuuuuuu",
"uuuuuuuuuuuuuuuuuuuuuuuuuuuuuuuuuuuuuuuuuuuuuuuuuuuuuuuuuuuuuuuu",
"uuuuuuuuuuuuuuuuuuuuuuuuuuuuuuuuuuuuuuuuuuuuuuuuuuuuuuuuuuuuuuuu",
"uuuuuuuuuuuuuuuuuuuuuuuuuuuuuuuuuuuuuuuuuuuuuuuuuuuuuuuuuuuuuuuu",
"uuuuujSuuu$u:3uVAuuu#uu1uuuuuuuuuuuuuuuuuujSuuu$u:3uVAuuu#uu1uuu",
"u45uuSSBu%--5rwSSuu--*rr>uuuujSuuu$u:34VAuSS#u%1-5rwSSuu--*rr>uu",
"u25uuC443u-54ru=*qqr-uuwu45uuSSBu%--5rwSSuC--*rr>4ru=*qqr-uuwuuu",
"u44uuS555---5r----r--*rr<25uuC443u-54r4=*qqr-5-w-5r----r--*rr<uu",
"u855uu555u---r----r--&rr,44uuS555---5r----r--*rr<-r----r--&rr,uu",
"uu559u455u*--r----r--urru855uu555u---r----r--&rr,-r----r--urruuu",
"uu45565554&---t--w---rrquu559u455u*--r----r--5rr---t--w---rrquuu",
"uu655455555---------rrruuu45565554&---t--w---rrq---------rrruuuu",
"uuu55555555;--------rreuuu655455555---------rrr5;--------rreuuuu",
"uuuu755555SSS-----*0rtuuuuu55555555;--------rreSSS-----*wryuuuuu",
"uuuuu55555SSS------rrwuuuuuu755555SSS-----*wry5SSS------rrwuuuuu",
"uuuuu55555AAS------rrwuuuuuuu55555SSS------rrw5ASS------rrwuuuuu",
"uuuuu55555AAS------rrwuuuuuuu55555ASA------rrw5ASS------rrwuuuuu",
"uuuuu555555AZ------0rruuuuuuu55555AAA------rrw55SZ------0rruuuuu",
"uuuuu555555AZ-------rruuuuuuu555555AZ------0rr55SZ-------rruuuuu",
"uuuuu55S55SSu---r---rruuuuuuu555555AZ-------rr5SSu---r---rruuuuu",
"uuuuu55S55SSu---r---rruuuuuuu55S55SSu---r---rr5AAu---r---rruuuuu",
"uuuuu55A55SSu---r---rruuuuuuu55A55SSu---r---rr5AAu---r---rruuuuu",
"uuuuu55S55SSu---rr--rrruuuuuu55S55SSu---r---rr5AAu---rr--rrruuuu",
"uuuuu55S55SSu---rr--urruuuuuu55S55SSu---rr--rrrSSu---rr--urruuuu",
"uuuuu55S55SSu---rr---rruuuuuu55S55SSu---rr--SrrSSu---rr---rruuuu",
"uuuuu55S55SSu---rr---rrruuuuu55S55SSu---rr---rrSSu---rr---rrruuu",
"uuuu555S55SSS---rr---rrruuuuu55S55SSu---rr---rrrSS---rr---rrruuu",
"uuu5555S5555S----r----rrrruu555S55ASS---rr---rrr5A----r----rrrru",
"uuu555uu5555u----r----urrru5555S5555S----r----rrrr----r----urrru"
};
