/* XPM */
static char *_eb3ca28b9fd4c55ce4730697bd62f1cX6aJDrJsmymkljpM[] = {
/* columns rows colors chars-per-pixel */
"64 64 81 1 ",
"  c black",
". c #161F1E",
"X c #1A1A18",
"o c #1D1918",
"O c #1B1A1F",
"+ c #1D1D1D",
"@ c #2B242C",
"# c #423B42",
"$ c #463A45",
"% c #50454E",
"& c #504F4D",
"* c #524F51",
"= c #544E51",
"- c #535051",
"; c #545051",
": c #5F5C5D",
"> c #625D5B",
", c #605C5C",
"< c #645F5F",
"1 c #6B636B",
"2 c #6B6768",
"3 c #6D676E",
"4 c #6F6868",
"5 c #6D6C6A",
"6 c #6F6A6C",
"7 c #6C6C6F",
"8 c #70676C",
"9 c #726D6E",
"0 c #777674",
"q c #787275",
"w c #7A7375",
"e c #7B7676",
"r c #7C7577",
"t c #797876",
"y c #7C787A",
"u c #8F3244",
"i c #FEDF73",
"p c #FEDD76",
"a c #FDDB79",
"s c #FEDE7B",
"d c #FFE073",
"f c #FFE075",
"g c #FFE079",
"h c #FEE678",
"j c #8B7E84",
"k c #7ED0C2",
"l c #63EDD6",
"z c #61FCD4",
"x c #66F0D9",
"c c #66F4DA",
"v c #67F5DD",
"b c #69F5DB",
"n c #6BF3DD",
"m c #6AF4DD",
"M c #66F5E1",
"N c #6CF7E0",
"B c #8B8181",
"V c #8A8085",
"C c #978B8C",
"Z c #938F8E",
"A c #92918F",
"S c #97918F",
"D c #DAC991",
"F c #FFDE80",
"G c #988DC7",
"H c #978FCB",
"J c #978ECD",
"K c #988ECB",
"L c #988DCF",
"P c #9691C9",
"I c #978DD2",
"U c #9C8DD2",
"Y c #988CD4",
"T c #FD94CF",
"R c #F696D3",
"E c #F892D1",
"W c #FD93D3",
"Q c #FA91D4",
"! c #FD93D5",
"~ c #FE94D6",
"^ c #FFFDFF",
/* pixels */
"uuuuuuuuuuuuuuuuuuuuuuuuuuuuuu uuuuuuuuuuuuuuuuuuuuuuuuuuuuuuuuu",
"uuuuuuuuuuuuuuuuuuuuuuuuuuuuuu uuuuuuuuuuuuuuuuuuuuuuuuuuuuuuuuu",
"uuuuuuuuuuuuuuuuuuuuuuuuuuuuuu uuuuuuuuuuuuuuuuuuuuuuuuuuuuuuuuu",
"uuuuuuuuuuuuuuuuuuuuuuuuuuuuuu uuuuuuuuuuuuuuuuuuuuuuuuuuuuuuuuu",
"uuuuuuuuuuuuuuuuuuuuuuuuuuuuuu uuuuuuuuuuuuuuuuuuuuuuuuuuuuuuuuu",
"uuuuuuuuuuuuuuuuuuuuuuuuuuuuuu uuuuuuuuuuuuuuuuuuuuuuuuuuuuuuuuu",
"uuuuuuuuuuuuuuuuuuuuuuuuuuuuuu uuuuuuuuuuuRuuuuuuuuuuuuuuuuuuuuu",
"uuuuuuuuuuuuuuuuuuuuuuuuuuuuuu uuuuuuuuuuRuRuuuuuuuuuuuuuuuuuuuu",
"uuuuuuuuuuuuuuuuuuuuuuuuuuuu o .+ uuuuuuuuRuuuuuuuuuuuuuuuuuuuuu",
"uuuuuuuuuuuuuuuuuuuuumuuuuu ^WmW^n uuuuuuuuuuuuuuuuuuuuuuuuuuuuu",
"uuuuuuuuuuuuuuuuuuuumumuuu PbN^vagR uuuuuuuuuuuuuuuuuuuuuuuuuuuu",
"uuuuuuuuuuuuuuuuuuuuumuuu L^s!!ggbJE uuuuuuuuuuuuuuuuuuuuuuuuuuu",
"uuuuuuuuuuuuuuuuuuuuuuuuu ^ff!QfgmzIXuuuuuuuuuuuuuuuuuuuuuuuuuuu",
"uuuuuuuuuuuuuuuuuuuuuuuuu bKK^^KKEEf@uuuuuuuuuuuuuuuuuuuuuuuuuuu",
"uuuuuuuuuuuuuuuuuuuuuuuuu ^~WKKvxKHxXuuuuuuuuuuuuuuuuuuuuuuuuuuu",
"uuuuuuuuuuuuuuuuuuuuuuuuu Kxvff~~fFWOuuuuuuuuuuuuuuuuuuuuuuuuuuu",
"uuuuuuuuuuuuuuuuuuuuuuuuu TYMdi!!pTG uuKuuuuuuuuuuuuuuuuuuuuuuuu",
"uuuuuuuuuuuuuuuuuuuuuuuuu J~gpmLlmUJ uKuKuuuuuuuuuuuuuuuuuuuuuuu",
"uuuuuuuuuuuuuuuuuuuuuuuuuu kcKWvWhD uuuKuuuuuuuuuuuuuuuuuuuuuuuu",
"uuuuuuuuuuuuuuuuuuuuuuuuuuu xJEvEs uuuuuuuuuuuuuuuuuuuuuuuuuuuuu",
"uuuuuuuuuuuuuuuuuuuuuuuuuuuu      uuuuuuuuuuuuuuuuuuuuuuuuuuuuuu",
"uuuuuuuuuuuuuuuuuuuuuuuuuuuuuuuuuuuuuuuuuuuuuuuuuuuuuuuuuuuuuuuu",
"uuuuuuuuuuuuuuuuuuuuuuuuuuuuuuuuuuuuuuuuuuuuuuuuuuuuuuuuuuuuuuuu",
"uuuuuuuuuuuuuuuuuuuuuuuuuuuuFuuuuuuuuuuuuuuuuuuuuuuuuuuuuuuuuuuu",
"uuuuuuuuuuuuuuuuuuuuuuuuuuuFuFuuuuuuuuuuuuuuuuuuuuuuuuuuuuuuuuuu",
"uuuuuuuuuuuuuuuuuuuuuuuuuuuuFuuuuuuuuuuuuuuuuuuuuuuuuuuuuuuuuuuu",
"uuuuuuuuuuuuuuuuuuuuuuuuuuuuuuuuuuuuuuuuuuuuuuuuuuuuuuuuuuuuuuuu",
"uuuuuuuuuuuuuuuuuuuuuuuuuuuuuuuuuuuuuuuuuuuuuuuuuuuuuuuuuuuuuuuu",
"uuuuuuuuuuuuuuuuuuuuuuuuuuuuuuuuuuuuuuuuuuuuuuuuuuuuuuuuuuuuuuuu",
"uuuuuuuuuuuuuuuuuuuuuuuuuuuuuuuuuuuuuuuuuuuuuuuuuuuuuuuuuuuuuuuu",
"uuuuuuuuuuuuuuuuuuuuuuuuuuuuuuuuuuuuuuuuuuuuuuuuuuuuuuuuuuuuuuuu",
"uuuuuuuuuuuuuuuuuuuuuuuuuuuuuuuuuuuuuuuuuuuuuuuuuuuuuuuuuuuuuuuu",
"uuuuuuuuuuuuuuuuuuuuuuuuuuuuuuuuuuuuuuuuuuuuuuuuuuuuuuuuuuuuuuuu",
"uuuuuuuuuuuuuuuuuuuuuuuuuuuuuuuuuuuuuuuuuuuuuuuuuuuuuuuuuuuuuuuu",
"uuuuuuuuuuuuuuuuuuuuuuuuuuuuuuuuuuuuuuuuuuuuuuuuuuuuuuuuuuuuuuuu",
"uuuuuuuuuuuuuuuuuuuuuuuuuuuuuuuuuuuuuuuuuuuuuuuuuuuuuuuuuuuuuuuu",
"uuuuuuuuuuuuuuuuuuuuuuuuuuuuuuuuuuuuuuuuuuuuuuuuuuuuuuuuuuuuuuuu",
"uuuuuuuuuuuuuuuuuuuuuuuuuuuuuuuuuuuuuuuuuuuuuuuuuuuuuuuuuuuuuuuu",
"uuuuuuuuuuuuuuuuuuuuuuuuuuuuuuuuuuuuuuuuuuuuuuuuuuuuuuuuuuuuuuuu",
"uuuuuuujSuuu$u:3uVAuuu#uujSuuu$u:3uVAuuu#uu1jSuuu$u:3uVAuuu#uu1u",
"uuu45uuSSBu%--5teAAuu45*tSSBu%--5teSSuu--*tt>SBu%--5teSSuu--*tt>",
"uuu25uuC443u-54tu**qq25uuC443u-54tu=*qqt-5ueC443u-54tu=*qqt-uueu",
"uuu44uuS555---5t----t44*tS555---5t----t--*tt<555---5t----t--*tt<",
"uuu855uu555u---t----t855tt555u---t----t--&tt,555u---t----t--&tt,",
"uuuu559u455u*--t----t-559t455u*--t----t--5ttu455u*--t----t--uttu",
"uuuu45565554&---y--e--45565554&---y--e---ttq65554&---y--e---ttqu",
"uuuu655455555---------655455555---------ttt5455555---------tttuu",
"uuuuu55555555;--------t55555555;--------ttr5555555---------ttruu",
"uuuuuu755555SSA-----*0ty755555SSS-----*etyu755555SSS-----*etyuuu",
"uuuuuuu55555SSS------tteu55555SSS------tteuu55555SSS------tteuuu",
"uuuuuuu55555ASS------tteu55555ASA------tteuu55555ASS------tteuuu",
"uuuuuuu55555ASS------tteu55555ASA------tteuu55555ASS------tteuuu",
"uuuuuuu555555SZ------0ttu555555SZ------0ttuu555555SZ------0ttuuu",
"uuuuuuu555555SZ-------ttu555555SZ-------ttuu555555SZ-------ttuuu",
"uuuuuuu55A55SSu---t---ttu55S55SSu---t---ttuu55S55SAu---t---ttuuu",
"uuuuuuu55A55SSu---t---ttu55S55AAu---t---ttuu55S55SAu---t---ttuuu",
"uuuuuuu55S55AAu---t---ttu55S55AAu---t---ttuu55S55SSu---t---ttuuu",
"uuuuuuu55S55SAu---tt--ttt55S55AAu---tt--tttu55A55SSu---tt--tttuu",
"uuuuuuu55S55SAu---tt--utt55S55SSu---tt--uttu55S55ASu---tt--uttuu",
"uuuuuuu55S55SSu---tt---tt55S55SSu---tt---ttu55S55AAu---tt---ttuu",
"uuuuuuu55S55SAu---tt---tt55S55SSu---tt---ttt55S55ASu---tt---tttu",
"uuuuuu555S55SSS---tt---t555S55SSS---tt---ttt55S55ASS---tt---tttu",
"uuuuu5555S5555S----t---5555S5555S----t----ttttS5555S----t----ttt",
"uuuuu555uu5555u----t---555tt5555u----t----5tttu5555u----t----utt"
};
