/* XPM */
static char *_ce34c42191d4b3db8afaccfcb3ff487aDIQeAKyEqQL4PrN[] = {
/* columns rows colors chars-per-pixel */
"64 64 81 1 ",
"  c black",
". c #161F1E",
"X c #1A1A18",
"o c #1D1918",
"O c #1B1A1F",
"+ c #1D1D1D",
"@ c #2B242C",
"# c #423B42",
"$ c #463A45",
"% c #50454E",
"& c #504F4D",
"* c #524F51",
"= c #544E51",
"- c #515151",
"; c #545051",
": c #5F5C5D",
"> c #625D5B",
", c #605C5C",
"< c #645F5F",
"1 c #6B636B",
"2 c #6B6768",
"3 c #6E676C",
"4 c #6E6A69",
"5 c #6D6C6A",
"6 c #6F6B6C",
"7 c #6C6C6F",
"8 c #70676C",
"9 c #726D6E",
"0 c #777674",
"q c #7A7375",
"w c #787775",
"e c #7C7577",
"r c #797876",
"t c #7A7879",
"y c #7C787A",
"u c #8F3244",
"i c #FEDF73",
"p c #FEDD76",
"a c #FDDB79",
"s c #FEDE7B",
"d c #FFE073",
"f c #FFE075",
"g c #FFE079",
"h c #FEE678",
"j c #8B7E84",
"k c #7ED0C2",
"l c #63EDD6",
"z c #61FCD4",
"x c #66F0D9",
"c c #66F4DA",
"v c #67F5DD",
"b c #69F5DB",
"n c #6BF3DD",
"m c #6AF4DD",
"M c #66F5E1",
"N c #6CF7E0",
"B c #8B8181",
"V c #8A8085",
"C c #978B8C",
"Z c #938F8E",
"A c #92918F",
"S c #97918F",
"D c #DAC991",
"F c #FFDE80",
"G c #988DC7",
"H c #978FCB",
"J c #978ECD",
"K c #988ECB",
"L c #988DCF",
"P c #9691C9",
"I c #978DD2",
"U c #9C8DD2",
"Y c #988CD4",
"T c #FD94CF",
"R c #F696D3",
"E c #F892D1",
"W c #FD93D3",
"Q c #FA91D4",
"! c #FD93D5",
"~ c #FE94D6",
"^ c #FFFDFF",
/* pixels */
"uuuuuuuuuuuuuuuuuuuuuuuuuuuuuu uuuuuuuuuuuuuuuuuuuuuuuuuuuuuuuuu",
"uuuuuuuuuuuuuuuuuuuuuuuuuuuuuu uuuuuuuuuuuuuuuuuuuuuuuuuuuuuuuuu",
"uuuuuuuuuuuuuuuuuuuuuuuuuuuuuu uuuuuuuuuuuuuuuuuuuuuuuuuuuuuuuuu",
"uuuuuuuuuuuuuuuuuuuuuuuuuuuuuu uuuuuuuuuuuuuuuuuuuuuuuuuuuuuuuuu",
"uuuuuuuuuuuuuuuuuuuuuuuuuuuuuu uuuu~uuuuuuuuuuuuuuuuuuuuuuuuuuuu",
"uuuuuuuuuuuuuuuuuucuuuuuuuuuuu uuu~u~uuuuuuuuuuuuuuuuuuuuuuuuuuu",
"uuuuuuuuuuuuuuuuucucuuuuuuuuuu uuuu~uuuuuuuuuuuuuuuuuuuuuuuuuuuu",
"uuuuuuuuuuuuuuuuuucuuuuuuuuuuu uuuuuuuuuuuuuuuuuuuuuuuuuuuuuuuuu",
"uuuuuuuuuuuuuuuuuuuuuuuuuuuu o .+ uuuuuuuuuuuuuuuuuuuuuuuuuuuuuu",
"uuuuuuuuuuuuuuuuuuuuuuuuuuu ^WmW^n uuuuuuuuuuuuuuuuuuuuuuuuuuuuu",
"uuuuuuuuuuuuuuuuuuuuuuuuuu PbN^vagR uuuuuuuuuuuuuuuuuuuuuuuuuuuu",
"uuuuuuuuuuuuuuuuuuuuuuuuu L^s!!ggbJE uuuuuuuuuuuuuuuuuuuuuuuuuuu",
"uuuuuuuuuuuuuuuuuuuuuuuuu ^ff!QfgmzIXuuuuuuuuuuuuuuuuuuuuuuuuuuu",
"uuuuuuuuuuuuuuuuuuuuuuuuu bKK^^KKEEf@uuuuuuuuuuuuuuuuuuuuuuuuuuu",
"uuuuuuuuuuuuuuuuuuuuuuuuu ^~WKKvxKHxXuuuuuuuuuuuuuuuuuuuuuuuuuuu",
"uuuuuuuuuuuuuuuuuuuuuuuuu Kxvff~~fFWOuuuuuuuuuuuuuuuuuuuuuuuuuuu",
"uuuuuuuuuuuuuuuuuuuuuuuuu TYMdi!!pTG uuuuuuuuuuuuuuuuuuuuuuuuuuu",
"uuuuuuuuuuuuuuuuuuuuuuuuu J~gpmLlmUJ uuuuuuuuuuuuuuuuuuuuuuuuuuu",
"uuuuuuuuuuuuuuuuuuuuuuuuuu kcKWvWhD uuuuuuuuuuuuuuuuuuuuuuuuuuuu",
"uuuuuuuuuuuuuuuuuuuuuuuuuuu xJEvEs uuuuuuuuuuuuuuuuuuuuuuuuuuuuu",
"uuuuuuuuuuuuuuuuuuuuuFuuuuuu      uuuuuuuuuuuuuuuuuuuuuuuuuuuuuu",
"uuuuuuuuuuuuuuuuuuuuFuFuuuuuuuuuuuuuuuuKuuuuuuuuuuuuuuuuuuuuuuuu",
"uuuuuuuuuuuuuuuuuuuuuFuuuuuuuuuuuuuuuuKuKuuuuuuuuuuuuuuuuuuuuuuu",
"uuuuuuuuuuuuuuuuuuuuuuuuuuuuuuuuuuuuuuuKuuuuuuuuuuuuuuuuuuuuuuuu",
"uuuuuuuuuuuuuuuuuuuuuuuuuuuuuuuuuuuuuuuuuuuuuuuuuuuuuuuuuuuuuuuu",
"uuuuuuuuuuuuuuuuuuuuuuuuuuuuuuuuuuuuuuuuuuuuuuuuuuuuuuuuuuuuuuuu",
"uuuuuuuuuuuuuuuuuuuuuuuuuuuuuuuuuuuuuuuuuuuuuuuuuuuuuuuuuuuuuuuu",
"uuuuuuuuuuuuuuuuuuuuuuuuuuuuuuuuuuuuuuuuuuuuuuuuuuuuuuuuuuuuuuuu",
"uuuuuuuuuuuuuuuuuuuuuuuuuuuuuuuuuuuuuuuuuuuuuuuuuuuuuuuuuuuuuuuu",
"uuuuuuuuuuuuuuuuuuuuuuuuuuuuuuuuuuuuuuuuuuuuuuuuuuuuuuuuuuuuuuuu",
"uuuuuuuuuuuuuuuuuuuuuuuuuuuuuuuuuuuuuuuuuuuuuuuuuuuuuuuuuuuuuuuu",
"uuuuuuuuuuuuuuuuuuuuuuuuuuuuuuuuuuuuuuuuuuuuuuuuuuuuuuuuuuuuuuuu",
"uuuuuuuuuuuuuuuuuuuuuuuuuuuuuuuuuuuuuuuuuuuuuuuuuuuuuuuuuuuuuuuu",
"uuuuuuuuuuuuuuuuuuuuuuuuuuuuuuuuuuuuuuuuuuuuuuuuuuuuuuuuuuuuuuuu",
"uuuuuuuuuuuuuuuuuuuuuuuuuuuuuuuuuuuuuuuuuuuuuuuuuuuuuuuuuuuuuuuu",
"uuuuuuuuuuuuuuuuuuuuuuuuuuuuuuuuuuuuuuuuuuuuuuuuuuuuuuuuuuuuuuuu",
"uuuuuuuuuuuuuuuuuuuuuuuuuuuuuuuuuuuuuuuuuuuuuuuuuuuuuuuuuuuuuuuu",
"uuuuuuuuuuuuuuuuuuuuuuuuuuuuuuuuuuuuuuuuuuuuuuuuuuuuuuuuuuuuuuuu",
"uuuuuuuuuuuuuuuuuuuuuuuuuuuuuuuuuuuuuuuuuuuuuuuuuuuuuuuuuuuuuuuu",
"uuuuuuuujSuuu$u:3uVAuuu#uu1uujSuuu$u:3jVAuu$#:31VAuuu#uu1uuuuuuu",
"uuuu45uuSSBu%--5rwSSuu--*45>uSSBu%--5rwSSu%--*rr>Suu--*rr>uuuuuu",
"uuuu25uuC443u-54ru=*qqr-u25uuC443u-54rC=*qqr-4rw=*qqr-uuwuuuuuuu",
"uuuu44uuS555---5r----r--*44<uS555---5r----r--*rr<--r--*rr<uuuuuu",
"uuuu855uu555u---r----r--&855uu555u---r----r--&rr,--r--&rr,uuuuuu",
"uuuuu559u455u*--r----r--ur559u455u*--r----r---rr---r--urruuuuuuu",
"uuuuu45565554&---t--w---rr45565554&---t--w---rrq--w---rrquuuuuuu",
"uuuuu655455555---------rrr655455555---------rrr------rrruuuuuuuu",
"uuuuuu55555555;--------rreu55555555;--------rre------rreuuuuuuuu",
"uuuuuuu755555SSS-----*wryuuu755555SSS-----*wry-----*wryuuuuuuuuu",
"uuuuuuuu55555SSS------rrwuuuu55555SSS------rrw------rrwuuuuuuuuu",
"uuuuuuuu55555ASS------rrwuuuu55555ASS------rrw------rrwuuuuuuuuu",
"uuuuuuuu55555ASS------rrwuuuu55555ASS------rrw------rrwuuuuuuuuu",
"uuuuuuuu555555SZ------0rruuuu555555SZ------0rr------0rruuuuuuuuu",
"uuuuuuuu555555SZ-------rruuuu555555SZ-------rr-------rruuuuuuuuu",
"uuuuuuuu55S55SAu---r---rruuuu55S55SSu---r---rr---r---rruuuuuuuuu",
"uuuuuuuu55S55SAu---r---rruuuu55S55SSu---r---rr---r---rruuuuuuuuu",
"uuuuuuuu55S55AAu---r---rruuuu55A55SSu---r---rr---r---rruuuuuuuuu",
"uuuuuuuu55S55SSu---rr--rrruuu55S55SSu---rr--rrr--rr--rrruuuuuuuu",
"uuuuuuuu55S55SSu---rr--urruuu55S55SSu---rr--Srr--rr--urruuuuuuuu",
"uuuuuuuu55S55SSu---rr---rruuu55S55SSu---rr---rr--rr---rruuuuuuuu",
"uuuuuuuu55S55SSu---rr---rrruu55S55SSu---rr---rrr-rr---rrruuuuuuu",
"uuuuuuu555S55SAS---rr---rrru555S55SSS---rr---rrr-rr---rrruuuuuuu",
"uuuuuu5555S5555S---*r----rr5555S5555S----r----rrrrr----rrrruuuuu",
"uuuuuu555uu5555u----r----ur555uu55555----r-----rrrr----urrr-uuuu"
};
