/* XPM */
static char *_9c900a51c8b40eca2c68b1789cb66a7L6RmkpDJcAzhoSJ3[] = {
/* columns rows colors chars-per-pixel */
"64 64 86 1 ",
"  c black",
". c #13180E",
"X c #1B1A15",
"o c #1A151E",
"O c #171B1D",
"+ c #1A1A1A",
"@ c #21121B",
"# c #292511",
"$ c #28251C",
"% c #181721",
"& c #151B21",
"* c #1A1924",
"= c #241523",
"- c #172928",
"; c #252525",
": c #4F4D4D",
"> c #504D4E",
", c #52514F",
"< c #554D52",
"1 c #525051",
"2 c #5D5B5A",
"3 c #635B5F",
"4 c #635A61",
"5 c #6A5C60",
"6 c #626160",
"7 c #696665",
"8 c #6D6669",
"9 c #6D6C6A",
"0 c #706A67",
"q c #6F6C71",
"w c #756F74",
"e c #777574",
"r c #7A7575",
"t c #797876",
"y c #767378",
"u c #797778",
"i c #7B7A7B",
"p c #8F3244",
"a c #F7DF75",
"s c #FDDE75",
"d c #FCDE78",
"f c #FFE26C",
"g c #FEE176",
"h c #FEE079",
"j c #5FF8DE",
"k c #65EDD7",
"l c #6BEEDC",
"z c #79EDDC",
"x c #65F6D5",
"c c #66F5DC",
"v c #6AF4DC",
"b c #60F9DA",
"n c #69FADE",
"m c #75F0D8",
"M c #5AF4E5",
"N c #77E8E5",
"B c #63F6E0",
"V c #8F8787",
"C c #948D8E",
"Z c #94908F",
"A c #978E90",
"S c #FFD781",
"D c #F8E187",
"F c #978FC6",
"G c #988EC5",
"H c #978ECA",
"J c #998DCB",
"K c #9A91C7",
"L c #9790CB",
"P c #9990CA",
"I c #F793D0",
"U c #F596D2",
"Y c #F396D5",
"T c #F891D3",
"R c #FC92D2",
"E c #FB95D1",
"W c #FF90D7",
"Q c #FB94D5",
"! c #FC95D4",
"~ c #F598D4",
"^ c #FF90DC",
"/ c gray98",
"( c #FFFEFB",
") c #FFF8FF",
"_ c #FAFDFC",
"` c #FEFEFE",
/* pixels */
"ppppppppppppppppppppppppppppppp pppppppppppppppppppppppppppppppp",
"ppppppppppppppppppppppppppppppp pppppppppppppppppppppppppppppppp",
"ppppppppppppppppppppppppppppppp pppppppppppppppppppppppppppppppp",
"ppppppppppppppppppppppppppppppp pppppppppppppppppppppppppppppppp",
"ppppppppppppppppppppppppppppppp pppppppppppppppppppppppppppppppp",
"pppppppppppppppppppppppgppppppp+pppppppppppppppppppppppppppppppp",
"ppppppppppppppppppppppgpgpppp+++;++ppppppppppppppppppppppppppppp",
"pppppppppppppppppppppppgppp +)EcT_m& pppppJppppppppppppppppppppp",
"pppppppppppppppppppppppppp+``R~cR`(vvopppJpJpppppppppppppppppppp",
"ppppppppppppppppppppppppp+`Jvk``cjssTb+pppJppppppppppppppppppppp",
"pppppppppppppppppppppppp JJcl```ccMhfRT pppppppppppppppppppppppp",
"pppppppppppppppppppppppp%J`agWRWgggBBJI@pppppppppppppppppppppppp",
"ppppppppppppppppppppppp+```hhRRRshgccLGH+ppppppppppppppppppppppp",
"ppppppppppppppppppppppp+(cvJJ```JJJ!RggJ*ppppppppppppppppppppppp",
"ppppppppppppppppppppppp+ncvJJ/`(HHJERsgh$ppppppppppppppppppppppp",
"ppppppppppppppppppppppp;```RRHJJcvcJJccv+ppppppppppppppppppppppp",
"ppppppppppppppppppppppp+G(`REGHJccxHHvvUXppppppppppppppppppppppp",
"ppppppppppppppppppppppp+KJHvcgggRRWggRRQXppppppppppppppppppppppp",
"pppppppppppppppppppppppp@YJcchdgRRRgd^J&pppppppppppppppppppppppp",
"pppppppppppppppppppppppp TRghlccJJJvvJJ pppppppppppppppppppppppp",
"ppppppppppppppppppppppppp=zRgavcJHvcFD*ppppppppppppppppppppppppp",
"ppppppppppppppppppppppcppp+clHJRcURdgXppTppppppppppppppppppppppp",
"pppppppppppppppppppppcpcppp -NPRvRS# ppTpTpppppppppppppppppppppp",
"ppppppppppppppppppppppcppppppo+OXO.pppppTppppppppppppppppppppppp",
"pppppppppppppppppppppppppppppppppppppppppppppppppppppppppppppppp",
"pppppppppppppppppppppppppppppppppppppppppppppppppppppppppppppppp",
"pppppppppppppppppppppppppppppppppppppppppppppppppppppppppppppppp",
"pppppppppppppppppppppppppppppppppppppppppppppppppppppppppppppppp",
"pppppppppppppppppppppppppppppppppppppppppppppppppppppppppppppppp",
"pppppppppppppppppppppppppppppppppppppppppppppppppppppppppppppppp",
"pppppppppppppppppppppppppppppppppppppppppppppppppppppppppppppppp",
"pppppppppppppppppppppppppppppppppppppppppppppppppppppppppppppppp",
"pppppppppppppppppppppppppppppppppppppppppppppppppppppppppppppppp",
"pppppppApppppppppppppCpppppppppppppppppApppppppppppppCpppppppppp",
"p998pppZZCpp>1p99tyCZZppp>1pweepp998ppp1ZCpp>1>99tyCZZppp>1:weep",
"p999pppCZCpp11199tuVZCppp111rttpp999pp111Cpp11199tuVZCppp111rttp",
"pp9ppppZ999pp169ttp111utt11ppttp1118pp11999pp169ttp111utt11ppttp",
"p999ppp99999<1199t11111tt111ettp1111pp111999<1199t11111tt111ettp",
"p8999pp99999<11:9t11111te1111tt111119p111999<11:9t11111te111tttp",
"pp9991p09999p111tt11111t11111tt1111191119999p111tt11111t111ptttp",
"pp7999qp999pp111,2i111ee111111tp11199111999pp111,2i111ee111etttp",
"pp59999p999p91111,e111t11111111p11191111999p91111,e111t1111tttpp",
"ppp99999999999111111111111t1111111111119999999111111111111tttwpp",
"pppp999999999921111111111ttt111111111199999999p1111111111ttttppp",
"pppp8899999999Z>11111111>tttp11111111899999999Z>11111111>tttpppp",
"pppppp9999999CZZZ1111111tttppp111111pp9999999CZZZ1111111tttppppp",
"pppppp9999999ZZZZ1111111ttttpp1111111p9999999ZZZZ1111111ttttpppp",
"pppppp9999999ZZZZ1111111ttttpp1111111p9999999ZZZZ1111111ttttpppp",
"pppppp9999999ZZZZ1111111ttttpp1111111p9999999ZZZZ1111111ttttpppp",
"ppppp299999997ZZ>1111111,tttpp1111111p99999997ZZ>1111111,tttpppp",
"ppppp499999999ZZ111111111tttp11111111199999999ZZ111111111tttpppp",
"ppppp399999999ZZ111111111tttp11111111199999999ZZ111111111tttpppp",
"pppppp999pp999ZZ111111111tttp111111111999pp999ZZ111111111tttpppp",
"pppppp999pp99ZZZ111111111tttp111111111999pp99ZZZ111111111tttpppp",
"pppppp999pp99ZZZ1111p1111tttp1111p1111999pp99ZZZ1111p1111tttpppp",
"pppppp999pp99ZZZ1111p1111tttp1111p1111999pp99ZZZ1111p1111tttpppp",
"pppppp999pp99ZZZ1111p1111tttp1111p1111999pp99ZZZ1111p1111tttpppp",
"pppppp999pp99ZZZ1111p1111tttp1111p1111999pp99ZZZ1111p1111tttpppp",
"pppppp999pp99ZZZ1111pp111tttp1111pp111999pp99ZZZ1111pp111tttpppp",
"pppppp999pp99ZZZ1111pp111tttp1111pp111999pp99ZZZ1111pp111tttpppp",
"ppppp9999pp999ZZ1111ppp11pttt1111ppp11999pp999ZZ1111ppp11ptttppp",
"pppp99999pZZ99ZZ1111ppp11pttt1111ppp11999pZZ99ZZ1111ppp11ptttttp",
"ppp99999pZZZ99911111p1111ptt11111p111199pZZZ99911111p1111ptttttp",
"ppp9999ppZZZ9911111Zp1111pp11111pp11119ppZZZ9911111Zp1111ppttttp"
};
