/* XPM */
static char *_370202045a44a64ea0f03683d4850a5TlJu8Ix5CK7K2zhD[] = {
/* columns rows colors chars-per-pixel */
"64 64 256 2 ",
"   c #47704C",
".  c #262829",
"X  c #17191A",
"o  c gray2",
"O  c gray6",
"+  c #070607",
"@  c #0E0E0E",
"#  c #131414",
"$  c None",
"%  c #353737",
"&  c gray4",
"*  c #161411",
"=  c #171817",
"-  c #503943",
";  c #513943",
":  c #080708",
">  c #090808",
",  c #0C0C0C",
"<  c #101111",
"1  c #1B1D1C",
"2  c #0B0A0B",
"3  c #090809",
"4  c #181311",
"5  c #060406",
"6  c #523944",
"7  c #050506",
"8  c gray3",
"9  c #0B0B0C",
"0  c #040305",
"q  c #3F2D1D",
"w  c #563D47",
"e  c #6F545F",
"r  c #0C0809",
"t  c #22191B",
"y  c #281F1F",
"u  c #342829",
"i  c #060606",
"p  c #040506",
"a  c #1C1516",
"s  c #070405",
"d  c #413037",
"f  c #261B20",
"g  c #150E10",
"h  c #070305",
"j  c #090809",
"k  c #41392D",
"l  c #020202",
"z  c #57471E",
"x  c #181615",
"c  c #6B5B26",
"v  c #281E1B",
"b  c #CEBB8D",
"n  c #070606",
"m  c #908C78",
"M  c #1B1714",
"N  c #30291E",
"B  c #191913",
"V  c #160E13",
"C  c #271D22",
"Z  c #3D2932",
"A  c #20161B",
"S  c #291D22",
"D  c #040204",
"F  c #393831",
"G  c #918166",
"H  c #725A44",
"J  c #614628",
"K  c #2A1F25",
"L  c #C5AF87",
"P  c #3A292F",
"I  c #170E12",
"U  c #6F6551",
"Y  c #060707",
"T  c #281A13",
"R  c #9F784D",
"E  c #B08761",
"W  c #594E24",
"Q  c #6D5D2F",
"!  c #62635F",
"~  c #6E5A2B",
"^  c #312B16",
"/  c #9D9E97",
"(  c #73736F",
")  c #39342B",
"_  c #494138",
"`  c #A6B17C",
"'  c #786330",
"]  c #605845",
"[  c #74E3A7",
"{  c #553544",
"}  c #74505E",
"|  c #E8E3BD",
" . c #FFE1A7",
".. c #593947",
"X. c #624350",
"o. c #EEB16D",
"O. c #573645",
"+. c #754F5E",
"@. c #6C4A58",
"#. c #73505E",
"$. c #11090C",
"%. c #75515F",
"&. c #513442",
"*. c #6F4D5B",
"=. c #190F11",
"-. c #674553",
";. c #241D14",
":. c #724F5D",
">. c #D9CBA7",
",. c #684855",
"<. c #FAD99E",
"1. c #33222A",
"2. c #38262E",
"3. c #D8A82C",
"4. c #CAB679",
"5. c #2A2122",
"6. c #E2CE9A",
"7. c #C69565",
"8. c #5C3C4A",
"9. c #452E38",
"0. c #D1A621",
"q. c #23151A",
"w. c #E8E0BB",
"e. c #5A404B",
"r. c #FEE2A5",
"t. c #C38516",
"y. c #F0B470",
"u. c #C88F1A",
"i. c #FCDDA3",
"p. c #DCA76F",
"a. c #714D5C",
"s. c #E9E3BD",
"d. c #402933",
"f. c #4F3240",
"g. c #D6C196",
"h. c #FFE2AA",
"j. c #625843",
"k. c #F8E379",
"l. c #F9F7DF",
"z. c #3A372E",
"x. c #E0D4AF",
"c. c #EFBB7A",
"v. c #EAB170",
"b. c #B3B4AB",
"n. c #815F41",
"m. c #D39B20",
"M. c #674B35",
"N. c #8B7D60",
"B. c #F4C587",
"V. c #8D846E",
"C. c #76505F",
"Z. c #332920",
"A. c #DEB331",
"S. c #E2BC3D",
"D. c #E8C64A",
"F. c #F0EBCF",
"G. c #D2A023",
"H. c #261712",
"J. c #D3C4A1",
"K. c #010103",
"L. c #E3AE73",
"P. c #D2B17E",
"I. c #8C6A4A",
"U. c #74515F",
"Y. c #4A303D",
"T. c #FDFBEA",
"R. c #A0A19A",
"E. c #D9CA9F",
"W. c #737470",
"Q. c #EBCA51",
"!. c #E1D8B2",
"~. c #E0B535",
"^. c #C48A15",
"/. c #F8D69A",
"(. c #5F2A1D",
"). c #C68717",
"_. c #7D6B53",
"`. c #D5C091",
"'. c #D3951F",
"]. c #AE8254",
"[. c #97714D",
"{. c #483925",
"}. c #E9E3C0",
"|. c #E9E4C2",
" X c #E3D289",
".X c #CD991F",
"XX c #3F1C17",
"oX c #C0BD9D",
"OX c #D1AA3D",
"+X c #9B9884",
"@X c #4C4336",
"#X c #503628",
"$X c #F1CD93",
"%X c #F9D294",
"&X c #5D4835",
"*X c #98917C",
"=X c #654F21",
"-X c #2B2117",
";X c #BFD085",
":X c #C99D69",
">X c #D4A168",
",X c #BD9061",
"<X c #9A7956",
"1X c #E4BF8A",
"2X c #AD9D7B",
"3X c #988666",
"4X c #9E9D92",
"5X c #383636",
"6X c #907B37",
"7X c #DEDAB8",
"8X c #F5F0D6",
"9X c #A37B2A",
"0X c #C5AE66",
"qX c #D6BB57",
"wX c #D8C161",
"eX c #362112",
"rX c #F3DBA8",
"tX c #FFE8AD",
"yX c #A59471",
"uX c #FDE1A8",
"iX c #D8B342",
"pX c #735338",
"aX c #BA8822",
"sX c #171A10",
"dX c #433E33",
"fX c #717B3D",
"gX c #B3AE7D",
"hX c #EDD49F",
"jX c #DAF17D",
"kX c #A48E6C",
"lX c #90641A",
"zX c #90621D",
"xX c #E2C491",
"cX c #BF9A30",
"vX c #F3DD6C",
"bX c #9C9155",
"nX c #C4AB61",
"mX c #AF8D2F",
"MX c #CBC9B6",
"NX c #362B29",
"BX c #B0C36A",
"VX c #BF9C72",
"CX c #CCE662",
"ZX c #D09D69",
"AX c #94A44A",
"SX c #CBDB95",
"DX c #ABC055",
"FX c #A8BF4A",
"GX c #92641A",
"HX c #020506",
"JX c #2E24BD",
"KX c #BA7D25",
"LX c #F83E00",
"PX c #010001",
"IX c #000102",
"UX c #47704C",
/* pixels */
"                                                                                                                                ",
"                                                                                                        X O O O O O # %         ",
"                                                                                              % . % %   3 + + + + + 7 X         ",
"                                                                                              3 0 0 7 7 ( b.b.b.b.b./ x &       ",
"                                                                                          1 9 ! W.W.W.W.b.l.l.F.F.8XMXa @       ",
"                                                                                          # o R.T.T.T.T.F.| w.>.J.x.oX4 @       ",
"                                                                                          # o R.l.|.}.|.| | w.>.J.x.oX4 @       ",
"                                                                                          # o R.l.| | | | | w.>.J.x.oX4 @       ",
"                                                                                          # o R.l.| | | s.| w.>.b `.J.m F ,     ",
"                                                                                          # n 4X8X| | | s.| w.>.4.4.>.7Xz.j     ",
"                                                                                          # n *XF.s.| | s.| w.>.4.4.E.7Xz.:     ",
"                                                                                          # n 4Xl.}.| | s.s.w.E.4.0X4.!.z.:     ",
"                                                                                          # n +XF.| }.}.!.>.E.4.0XnX4.!.z.:     ",
"                                                                                          # n V.!.x.x.x.>.E. XwXqXqXwX Xz.:     ",
"                                                                                          # n N.6.6.6.6.6. Xk.Q.Q.Q.D.iX=X^ &   ",
"                                                                                          # n bXk.k.k.k.k.vXQ.D.D.D.S.u.OXc 8 . ",
"                                                                                          # n 6XS.3.3.S.D.S.3.3.3.G.u.).A.c 7 . ",
"                                                                                          # + 6X~.'.m.A.S.A.0.0.0..Xt.).~.c 0 . ",
"                                                                                          X > Q mX3.m.3.~.A.0.0..Xu.t.t.9XW 3 % ",
"                                                                                              i z ~.m.'.3.A.0.G.u.t.^.aXeX:     ",
"                                                                                              p z iXm.'.G.0.G.^.t.t.u.OXq 3     ",
"                                                                                              & N =XOXG.m..Xu.t.t..XcXz * #     ",
"                                                                                                & N ' aX'.u.).).).9X~ : #       ",
"                                                                                                # 9 s =XGXlXzXzXlXJ h .         ",
"                                                                                          % = # * a B ;.;.;.;.;.;.v = %         ",
"                                                                                          = 0 + ] g.g.g.g.g.g.`.g.G 8 X         ",
"                                                                                        & x G yXN.j.j.j.j.<XB.B.i.3X5 X         ",
"                                                                                      < ) _.6.tXL j.j.j.Z.-XI.[.P.VXJ * #       ",
"                                                                                      > dXrXuX<.<.<.<.i.3XZ.Z.$.n.p.7.4 @       ",
"                                                                                    % > @XrX .B.v.L.L.L.1XhX`.Z.$.pX7.4 @       ",
"                                                                                  . h U `.uXr.B.].q q q <XB.c.,Xq M.7.4 @       ",
"                                                                                  % l _.tX . .%XP.N.N.N._.pXn.p.].n.&Xg @       ",
"                                                                                1 , k yXh. . .r.i./.<.<.kX@X&X<Xp.[.D 8 &       ",
"                                                                              1 @ u L h. . . .r.$XL.>XZXP.6.xX#X[.n.5 #         ",
"                                                                              2 y b i. . . . .r.%X:Xq ;.;.M.L.>XM.=.5 =         ",
"                                                                              9 -X6.h. . . . .r.<.$XgX2X2X3XM.p.&XPXn =         ",
"                                                                            , _ N.hXh. . . .h.uX<.1XkX1X%XP._.I.Z.n : 1         ",
"                                                                        % < 0 @Xb /.i. .uXr././.B.7.H.I.>Xc.xX5.K.p             ",
"                                                                    1 = O t B B {.:X$Xi.i.<.c.v.y.7.=.=.I.v.:XZ.HXi X X .       ",
"                                                                    9 5 M ` ;X;XgX{.,Xc.c.c.o.o.y.7.H.I.p.,X{.*XdXs 5 l <       ",
"                                                                  * S 2.sXBXjXjXSX;.].y.o.o.o.o.o.7.H.#XM.H V.J.2XV.m m F ,     ",
"                                                            O 9 9 t &.-.NXfXFXCX;X;.].y.o.o.o.o.y.7.=.K.IX5.V.V.V.*X+X+Xk 2     ",
"                                                          X * g g w U.U.@.5.fXDXAX-X[.p.o.o.o.o.L.E M o o + + + + + + 5 <       ",
"                                                        % j f ,.,.a.#.#.} @.z.sX;.(.eXn.v.o.v.v.R T & # O O O O O O O # .       ",
"                                                      . h u e.+.C.} } } } } X.2.$.(.(.#Xn.p.M.{.k @ .                           ",
"                                                    = : u e.U.+.+.} } } } } %.X.2.XX(.XXH.H v > 2                               ",
"                                                & , * f X.%.#.+.} } } } } } +.%.,.q.XXH.D 7 O                                   ",
"                                            % = x r A ,.+.} } } } } } } } } } } @.$ q.r 7 X %                                   ",
"                                            = 7 d X.X.:.+.} } } } } } } } } } @...{ =.p O                                       ",
"                                        2 i 8 d -.C.U.#.} } } } } +.%.} } %.-.8.{ { d.t 3 .                                     ",
"                                      , C 5.2.@.%.} } } } } } :.,.-.@.+.:.,.8.{ { { O.5.l 1                                     ",
"                                  . < t Y.U.#.#.#.} } } } } #.*...{ X.*.@...{ { { { O.1.V & .                                   ",
"                                  < n w a.} } } } #.} } } } #.*...{ O.O.O.&.&.&.&.{ { &.Z 5 &                                   ",
"                                , Y r 8.C.} } } } } } } } } @.8.{ { { { &.q.=.=.q.f.{ O.d.s <                                   ",
"                          1 3 > C 1.$.w C.} } } } } } #.-.X.8.{ { { { { f.$.5.5.$.Y.O.d.y : =                                   ",
"                      & , 2 y q.d.e.$.w %.} } } +.a.@.,...{ { { { { { { f.$.5X5X$.Y.9.y > %                                     ",
"                    X > r a X.*.X.9.=.e.%.:.*.*.a.-.O.O.{ { { { { { { { f.=.$.$.=.9.A j                                         ",
"                  . i P X.-.a.X.d.q.e.*.U.@.......O.{ { { { { { { { { { { Y.9.9.d.a * X                                         ",
"              @ 8 8 d X.C.C.} X.1.=.@.C.,.8.{ { { { { { { { { { { { { { { O.2.q.f * #                                           ",
"        . 2 * v 1.1.X.C.+.+.,.9.1.2.X.-.8.{ { { { { { { { { { { { { { { { 2.S p > 1                                             ",
"    # < @ M =.2.#.} } } } a...5.2.,.O.{ { { { { { { { { { { { { { { { &.9.I 2                                                   ",
"  % 3 s 4 e.@.*.} :.:.:.:.*...f.&.O.{ { { { { { { { { { { { { { { { { Z + @ .                                                   ",
". > u w e.*.+.} *.8.8.......{ $ $ $ $ $ $ $ $ $ $ $ $ $ $ $ $ $ $ $ 2.V @ 1                                                     ",
"% * N e e e e e e 6 - - - - - - - - - - 6 6 6 6 6 ; ; ; ; ; ; ; ; ; K * %                                                       "
};
