/* XPM */
static char *_bb2207bb4e24ee6e2a9e853d8bbd7b82gnMcAL5Uu0EfB2g[] = {
/* columns rows colors chars-per-pixel */
"64 64 7 1 ",
"  c black",
". c #5D3A25",
"X c #6A432B",
"o c #705342",
"O c #E01414",
"+ c #8F3244",
"@ c #4E84AC",
/* pixels */
"++++++++++++++++++++++++++++++++++++++++++++++++++++++++++++++++",
"++++++++++++++++++++++++++++++++++++++++++++++++++++++++++++++++",
"++++++++++++++++++++++++++++++++++++++++++++++++++++++++++++++++",
"++++++++++++++++++++++++++++++++++++++++++++++++++++++++++++++++",
"++++++++++++++++++++++++++++++++++++++++++++++++++++++++++++++++",
"++++++++++++++++++++++++++++++++++++++++++++++++++++++++++++++++",
"++++++++++++++++++++++++++++++++++++++++++++++++++++++++++++++++",
"++++++++++++++++++++++++++++++++++++++++++++++++++++++++++++++++",
"++++++++++++++++++++++++++++++++++++++++++++++++++++++++++++++++",
"++++++++++++++++++++++++++++++++++++++++++++++++++++++++++++++++",
"++++++++++++++++++++++++++++++++++++++++++++++++++++++++++++++++",
"++++++++++++++++++++++++++++++++++++++++++++++++++++++++++++++++",
"++++++++++++++++++++++++++++++++++++++++++++++++++++++++++++++++",
"++++++++++++++++++++++++++++++++++++++++++++++++++++++++++++++++",
"+++++++++++++                                       ++++++++++++",
"++++++++++++ ....................................... +++++++++++",
"++++++++++++ .XXXXXXXXXXXXXXXXX..XXXXXXXXXXXXXXXXXX. +++++++++++",
"++++++++++++ .@@@@@@@@@@@@@@@@@..@@@@@@@@@@@@@@@@@@. +++++++++++",
"++++++++++++ .@@@@@@@@@@@@@@@@@..@@@@@@@@@@@@@@@@@@. +++++++++++",
"++++++++++++ .@@@@@@@@@@@@@@@@@..@@@@@@@@@@@@@@@@@@. +++++++++++",
"++++++++++++ .@@@@@@@@@@@@@@@@@..@@@@@@@@@@@@@@@@@@. +++++++++++",
"++++++++++++ .@@@@@@@@@@@@@@@@@..@@@@@@@@@@@@@@@@@@. +++++++++++",
"++++++++++++ .@@@@@@@@@@@@@@@@@..@@@@@@@@@@@@@@@@@@. +++++++++++",
"++++++++++++ .@@@@@@@@@@@@@@@@@..@@@@@@@@@@@@@@@@@@. +++++++++++",
"++++++++++++ .@@@@@@@@@@@@@@@@@..@@@@@@@@@@@@@@@@@@. +++++++++++",
"++++++++++++ .@@@@@@@@@@@@@@@@@..@@@@@@@@@@@@@@@@@@. +++++++++++",
"++++++++++++ .@@@@@@@@@@@@@@@@@..@@@@@@@@@@@@@@@@@@. +++++++++++",
"++++++++++++ .@@@@@@@@@@@@@@@@@..@@@@@@@@@@@@@@@@@@. +++++++++++",
"++++++++++++ .@@@@@@@@@@@@@@@@@..@@@@@@@@@@@@@@@@@@. +++++++++++",
"++++++++++++ .XXXXXXXXXXXXXXXXXXXXXXXXXXXXXXXXXXXXXX +++++++++++",
"++++++++++++ .ooooooooooooooooo..oooooooooooooooooo. +++++++++++",
"++++++++++++ .@@@@@@@@@@@@@@@@@..@@@@@@@@@@@@@@@@@@. +++++++++++",
"++++++++++++ .@@@@@@@@@@@@@@@@@..@@@@@@@@@@@@@@@@@@. +++++++++++",
"++++++++++++ .@@@@@@@@@@@@@@@@@..@@@@@@@@@@@@@@@@@@. +++++++++++",
"++++++++++++ .@@@@@@@@@@@@@@@@@..@@@@@@@@@@@@@@@@@@. +++++++++++",
"++++++++++++ .@@@@@@@@@@@@@@@@@..@@@@@@@@@@@@@@@@@@. +++++++++++",
"++++++++++++ .@@@@@@@@@@@@@@@@@..@@@@@@@@@@@@@@@@@@. +++++++++++",
"++++++++++++ .@@@@@@@@@@@@@@@@@..@@@@@@@@@@@@@@@@@@. +++++++++++",
"++++++++++++ .@@@@@@@@@@@@@@@@@..@@@@@@@@@@@@@@@@@@. +++++++++++",
"++++++++++++ .@@@@@@@@@@@@@@@@@..@@@@@@@@@@@@@@@@@@. +++++++++++",
"++++++++++++ .ooooooooooooooooo..oooooooooooooooooo. +++++++++++",
"++++++++++++ ....................................... +++++++++++",
"+++++++++++++                                       ++++++++++++",
"++++++++++++++++++++++++++++++++++++++++++++++++++++++++++++++++",
"++++++++++++++++++++++++++++++++++++++++++++++++++++++++++++++++",
"++++++++++++ ++++++++++                         ++++++++ +++++++",
"+++++++++++ . ++++++++ ......................... ++++++ . ++++++",
"+++++++++++ . ++++++++ ......................... ++++++ . ++++++",
"+++++++++++ . ++++++++ ......................... ++++++ . ++++++",
"+++++++++++ . ++++++++ ......................... ++++++ . ++++++",
"+++++++++++ . ++++++++ ......................... ++++++ . ++++++",
"+++++++++++ . ++++++++ ......................... ++++++ . ++++++",
"+++++++++++ . +++++++++        ..........       +++++++ . ++++++",
"+++++++++++ . ++++++++++++++++ .......... +++++++++++++ . ++++++",
"+++++++++++ . ++++++++++++++++ .......... +++++++++++++ . ++++++",
"+++++++++++ .        +++++++++ .......... +++++++       . ++++++",
"+++++++++++ .OOOOOOOO ++++++++ .......... ++++++ OOOOOOO. ++++++",
"+++++++++++ .......... +++++++ .......... +++++ ......... ++++++",
"+++++++++++ .        . +++++++ .......... +++++ .       . ++++++",
"+++++++++++ . ++++++ . +++++++ .......... +++++ . +++++ . ++++++",
"+++++++++++ . ++++++ . +++++++ .......... +++++ . +++++ . ++++++",
"+++++++++++ . ++++++ . +++++++ .......... +++++ . +++++ . ++++++",
"+++++++++++ . ++++++ . +++++++ .......... +++++ . +++++ . ++++++",
"+++++++++++ . ++++++ . +++++++ .......... +++++ . +++++ . ++++++"
};
