/* XPM */
static char *_48d4e5961d348c4c607ccda8b422438ORBzvnsj1R6NnueX[] = {
/* columns rows colors chars-per-pixel */
"64 64 9 1 ",
"  c black",
". c #091731",
"X c #5D3A25",
"o c #6A432B",
"O c #705342",
"+ c #E01414",
"@ c #8F3244",
"# c #FED904",
"$ c white",
/* pixels */
"@@@@@@@@@@@@@@@@@@@@@@@@@@@@@@@@@@@@@@@@@@@@@@@@@@@@@@@@@@@@@@@@",
"@@@@@@@@@@@@@@@@@@@@@@@@@@@@@@@@@@@@@@@@@@@@@@@@@@@@@@@@@@@@@@@@",
"@@@@@@@@@@@@@@@@@@@@@@@@@@@@@@@@@@@@@@@@@@@@@@@@@@@@@@@@@@@@@@@@",
"@@@@@@@@@@@@@@@@@@@@@@@@@@@@@@@@@@@@@@@@@@@@@@@@@@@@@@@@@@@@@@@@",
"@@@@@@@@@@@@@@@@@@@@@@@@@@@@@@@@@@@@@@@@@@@@@@@@@@@@@@@@@@@@@@@@",
"@@@@@@@@@@@@@@@@@@@@@@@@@@@@@@@@@@@@@@@@@@@@@@@@@@@@@@@@@@@@@@@@",
"@@@@@@@@@@@@@@@@@@@@@@@@@@@@@@@@@@@@@@@@@@@@@@@@@@@@@@@@@@@@@@@@",
"@@@@@@@@@@@@@@@@@@@@@@@@@@@@@@@@@@@@@@@@@@@@@@@@@@@@@@@@@@@@@@@@",
"@@@@@@@@@@@@@@@@@@@@@@@@@@@@@@@@@@@@@@@@@@@@@@@@@@@@@@@@@@@@@@@@",
"@@@@@@@@@@@@@@@@@@@@@@@@@@@@@@@@@@@@@@@@@@@@@@@@@@@@@@@@@@@@@@@@",
"@@@@@@@@@@@@@@@@@@@@@@@@@@@@@@@@@@@@@@@@@@@@@@@@@@@@@@@@@@@@@@@@",
"@@@@@@@@@@@@@@@@@@@@@@@@@@@@@@@@@@@@@@@@@@@@@@@@@@@@@@@@@@@@@@@@",
"@@@@@@@@@@@@@@@@@@@@@@@@@@@@@@@@@@@@@@@@@@@@@@@@@@@@@@@@@@@@@@@@",
"@@@@@@@@@@@@@@@@@@@@@@@@@@@@@@@@@@@@@@@@@@@@@@@@@@@@@@@@@@@@@@@@",
"@@@@@@@@@@@@@                                       @@@@@@@@@@@@",
"@@@@@@@@@@@@ XXXXXXXXXXXXXXXXXXXXXXXXXXXXXXXXXXXXXXX @@@@@@@@@@@",
"@@@@@@@@@@@@ XoooooooooooooooooXXooooooooooooooooooX @@@@@@@@@@@",
"@@@@@@@@@@@@ X.................XX..................X @@@@@@@@@@@",
"@@@@@@@@@@@@ X....#...$........XX....$......#......X @@@@@@@@@@@",
"@@@@@@@@@@@@ X....#........#...XX..........#.#.....X @@@@@@@@@@@",
"@@@@@@@@@@@@ X..##.##.....#.#..XX...........#......X @@@@@@@@@@@",
"@@@@@@@@@@@@ X....#........#...XX.......#......$...X @@@@@@@@@@@",
"@@@@@@@@@@@@ X....#............XX.......#..........X @@@@@@@@@@@",
"@@@@@@@@@@@@ X..$.......#...$..XX.....##.##........X @@@@@@@@@@@",
"@@@@@@@@@@@@ X.........#.#.....XX.......#..........X @@@@@@@@@@@",
"@@@@@@@@@@@@ X....$.....#......XX.......#....$.....X @@@@@@@@@@@",
"@@@@@@@@@@@@ X.................XX..................X @@@@@@@@@@@",
"@@@@@@@@@@@@ X.................XX..................X @@@@@@@@@@@",
"@@@@@@@@@@@@ X.................XX..................X @@@@@@@@@@@",
"@@@@@@@@@@@@ Xoooooooooooooooooooooooooooooooooooooo @@@@@@@@@@@",
"@@@@@@@@@@@@ XOOOOOOOOOOOOOOOOOXXOOOOOOOOOOOOOOOOOOX @@@@@@@@@@@",
"@@@@@@@@@@@@ X.................XX...............#..X @@@@@@@@@@@",
"@@@@@@@@@@@@ X..$..........#...XX...$...........#..X @@@@@@@@@@@",
"@@@@@@@@@@@@ X..........$..#...XX......#......##.##X @@@@@@@@@@@",
"@@@@@@@@@@@@ X....#......##.##.XX......#........#..X @@@@@@@@@@@",
"@@@@@@@@@@@@ X...#.#.......#...XX...###.###.....#..X @@@@@@@@@@@",
"@@@@@@@@@@@@ X....#...#....#...XX......#...........X @@@@@@@@@@@",
"@@@@@@@@@@@@ X.......#.#.......XX......#......$....X @@@@@@@@@@@",
"@@@@@@@@@@@@ X..$.....#........XX..................X @@@@@@@@@@@",
"@@@@@@@@@@@@ X.................XX..................X @@@@@@@@@@@",
"@@@@@@@@@@@@ XOOOOOOOOOOOOOOOOOXXOOOOOOOOOOOOOOOOOOX @@@@@@@@@@@",
"@@@@@@@@@@@@ XXXXXXXXXXXXXXXXXXXXXXXXXXXXXXXXXXXXXXX @@@@@@@@@@@",
"@@@@@@@@@@@@@                                       @@@@@@@@@@@@",
"@@@@@@@@@@@@@@@@@@@@@@@@@@@@@@@@@@@@@@@@@@@@@@@@@@@@@@@@@@@@@@@@",
"@@@@@@@@@@@@@@@@@@@@@@@@@@@@@@@@@@@@@@@@@@@@@@@@@@@@@@@@@@@@@@@@",
"@@@@@@@@@@@@ @@@@@@@@@@                         @@@@@@@@ @@@@@@@",
"@@@@@@@@@@@ X @@@@@@@@ XXXXXXXXXXXXXXXXXXXXXXXXX @@@@@@ X @@@@@@",
"@@@@@@@@@@@ X @@@@@@@@ XXXXXXXXXXXXXXXXXXXXXXXXX @@@@@@ X @@@@@@",
"@@@@@@@@@@@ X @@@@@@@@ XXXXXXXXXXXXXXXXXXXXXXXXX @@@@@@ X @@@@@@",
"@@@@@@@@@@@ X @@@@@@@@ XXXXXXXXXXXXXXXXXXXXXXXXX @@@@@@ X @@@@@@",
"@@@@@@@@@@@ X @@@@@@@@ XXXXXXXXXXXXXXXXXXXXXXXXX @@@@@@ X @@@@@@",
"@@@@@@@@@@@ X @@@@@@@@ XXXXXXXXXXXXXXXXXXXXXXXXX @@@@@@ X @@@@@@",
"@@@@@@@@@@@ X @@@@@@@@@        XXXXXXXXXX       @@@@@@@ X @@@@@@",
"@@@@@@@@@@@ X @@@@@@@@@@@@@@@@ XXXXXXXXXX @@@@@@@@@@@@@ X @@@@@@",
"@@@@@@@@@@@ X @@@@@@@@@@@@@@@@ XXXXXXXXXX @@@@@@@@@@@@@ X @@@@@@",
"@@@@@@@@@@@ X        @@@@@@@@@ XXXXXXXXXX @@@@@@@       X @@@@@@",
"@@@@@@@@@@@ X++++++++ @@@@@@@@ XXXXXXXXXX @@@@@@ +++++++X @@@@@@",
"@@@@@@@@@@@ XXXXXXXXXX @@@@@@@ XXXXXXXXXX @@@@@ XXXXXXXXX @@@@@@",
"@@@@@@@@@@@ X        X @@@@@@@ XXXXXXXXXX @@@@@ X       X @@@@@@",
"@@@@@@@@@@@ X @@@@@@ X @@@@@@@ XXXXXXXXXX @@@@@ X @@@@@ X @@@@@@",
"@@@@@@@@@@@ X @@@@@@ X @@@@@@@ XXXXXXXXXX @@@@@ X @@@@@ X @@@@@@",
"@@@@@@@@@@@ X @@@@@@ X @@@@@@@ XXXXXXXXXX @@@@@ X @@@@@ X @@@@@@",
"@@@@@@@@@@@ X @@@@@@ X @@@@@@@ XXXXXXXXXX @@@@@ X @@@@@ X @@@@@@",
"@@@@@@@@@@@ X @@@@@@ X @@@@@@@ XXXXXXXXXX @@@@@ X @@@@@ X @@@@@@"
};
