/* XPM */
static char *ee5bcd58e43744c5dfa0f3d347fbbf9bUcpsMI1qDSG0cwgL[] = {
/* columns rows colors chars-per-pixel */
"64 64 27 1 ",
"  c black",
". c #273C19",
"X c #221E35",
"o c #142223",
"O c #0B2735",
"+ c gray13",
"@ c #363634",
"# c #5D3A25",
"$ c #02793A",
"% c #134A68",
"& c #705342",
"* c #971515",
"= c #B31E1E",
"- c #8B4100",
"; c #FC4E2C",
": c #E25A3C",
"> c #DE7025",
", c #8F3244",
"< c #38EC3F",
"1 c #E7C320",
"2 c #B49B77",
"3 c #FBED69",
"4 c #11BFEF",
"5 c gray67",
"6 c #F497A9",
"7 c #92C2CD",
"8 c white",
/* pixels */
",,,,,,,,,,,,,,,,,,,,,,,,,,,,,,,,,,,,,,,,,,,,,,,,,,,,,,,,,,,,,,,,",
",,,,,,,,,,,,,,,,,,,,,,,,,,,,,,,,,,,,,,,,,,,,,,,,,,,,,,,,,,,,,,,,",
",,,,,,,,,,,,,,,,,,,,,,,,,,,,,,,,,,,,,,,,,,,,,,,,,,,,,,,,,,,,,,,,",
",,,,,,,,,,,,,,,,,,,,,,,,,,,,,,,,,,,,,,,,,,,,,,,,,,,,,,,,,,,,,,,,",
",,,,,,,,,,,,,,,,,,,,,,,,,,,,,,,,,,,,,,,,,,,,,,,,,,,,,,,,,,,,,,,,",
",,,,,,,,,,,,,,,,,,,,,,,,,,,,,,,,,,,,,,,,,,,,,,,,,,,,,,,,,,,,,,,,",
",,,,,,,,,,,,,,,,,,,,,,,,,,,,,,,,,,,,,,,,,,,,,,,,,,,,,,,,,,,,,,,,",
",,,,,,,,,,,,,,,,,,,,,,,,,,,,,,,,,,,,,,,,,,,,,,,,,,,,,,,,,,,,,,,,",
",,,,,,,,,,,,,,,,,,,,,,,,,,,,,,,,,,,,,,,,,,,,,,,,,,,,,,,,,,,,,,,,",
",,,,,,,,,,,,,,,,,,,,,,,,,,,,,,,,,,,,,,,,,,,,,,,,,,,,,,,,,,,,,,,,",
",,,,,,,,,,,,,,,,,,,,,,,,,,,,,,,,,,,,,,,,,,,,,,,,,,,,,,,,,,,,,,,,",
",,,,,,,,,,,,,,,,,,,,,,,,,,,,,,,,,,,,,,,,,,,,,,,,,,,,,,,,,,,,,,,,",
",,, ,,,,,,, ,,,,,,, ,,,,,,, ,,,,,,,, ,,,,,,,, ,,,,,,, ,,,,,, ,,,",
",, = ,,,,, $ ,,,,, 2 ,,,,, % ,,,,,, O ,,,,,, + ,,,,, o ,,,, X ,,",
",, = ,,,,, 3 ,,,,, 2 ,,,,, 4 ,,,,,, ; ,,,,,, + ,,,,, o ,,,, X ,,",
",, . ,,,,, 3 ,,,,, 6 ,,,,, 4 ,,,,,, ; ,,,,,, - ,,,,, < ,,,, > ,,",
", ... ,,, 333 ,,, 666 ,,, 444 ,,,, ;;; ,,,,, - ,,,, <<< ,,, > ,,",
", ... ,,, 333 ,,, 666 ,,, 444 ,,,, ;;; ,,,,, - ,,,, <<< ,,, > ,,",
", ... ,,, $:$ ,,, 666 ,,, 444 ,,,, ;;; ,,,, --- ,,, <<< ,, >>> ,",
", *** ,,, :*: ,,, 222 ,,, %%% ,,,, OOO ,,,, --- ,,, ooo ,, >>> ,",
", === ,,, ... ,,, 888 ,,, %8% ,,,, 111 ,,,, @@@ ,,, <*< ,, X8X ,",
", *** ,,, 333 ,,, 222 ,,, 888 ,,,, OOO ,,,, 555 ,,, @@@ ,, 8X8 ,",
", ... ,,, $$$ ,,, 666 ,,, %%% ,,,, ;;; ,,,, --- ,,, <<< ,, X8X ,",
", ... ,,, 333 ,,, 666 ,,, 444 ,,,, ;;; ,,,, --- ,,, <<< ,, >>> ,",
",,   ,,,,,   ,,,,,   ,,,,,   ,,,,,,   ,,,,,,   ,,,,,   ,,,,   ,,",
"                                                                ",
"################################################################",
"################################################################",
"################################################################",
",,,,,,,,,,,,,,,,,,,,,,,,,,,,,,,,,,,,,,,,,,,,,,,,,,,,,,,,,,,,,,,,",
",,,     ,,,     ,,     ,,,,,,,,    ,,,,    ,,,,    ,,,,    ,,,,,",
",,, 777 ,,, 777 ,, 777 ,,,,,,,  77 ,,,  77 ,,,  77 ,,,  77 ,,,,,",
",,,, 7 ,,,,, 7 ,,,, 7 ,,,,,,, , 77 ,, , 77 ,, , 77 ,, , 77 ,,,,,",
",,,,, ,,,,,,, ,,,,,, ,,,,,,,, , 77 ,, , 77 ,, , 77 ,, , 77 ,,,,,",
",,,,, ,,,,,,, ,,,,,, ,,,,,,,,,  77 ,,,  77 ,,,  77 ,,,  77 ,,,,,",
",,,,   ,,,,,   ,,,,   ,,,,,,,,,    ,,,,    ,,,,    ,,,,    ,,,,,",
"                                                                ",
"################################################################",
"################################################################",
"################################################################",
",,,,,,,,,,,,,,,,,,,,,,,,,,,,,,,,,,,,,,,,,,,,,,,,,,,,,,,,,,,,,,,,",
",,,,,,,,,,,,,,,,,,,,,,,,,,,,,,,,,,,,,,,,,,,,,,,,,,,,,,,,,,,,,,,,",
",,,,,,,,,,,,,,,,,,,,,,,,,,,,,,,,,,,,,,,,,,,,,,,,,,,,,,,,,,,,,,,,",
",,,,,,,,,,,,,,,,,,,,,,,,,,,,,,,,,,,,,,,,,,,,,,,,,,,,,,,,,,,,,,,,",
",,,,,,,,,,,,,,,,,,,,,,,,,,,,,,,,,,,,,,,,,,,,,,,,,,,,,,,,,,,,,,,,",
",,,,,,,,,,,,,,,,,,,,,,,,,,,,,,,,,,,,,,,,,,,,,,,,,,,,,,,,,,,,,,,,",
"                                                                ",
"&&&&&&&&&&&&&&&&&&&&&&&&&&&&&&&&&&&&&&&&&&&&&&&&&&&&&&&&&&&&&&&&",
"####&###&####&######&#####&#######&####&####&#####&#####&##&###&",
"####&###&####&######&#####&#######&####&####&#####&#####&##&###&",
"####&###&####&######&#####&#######&####&####&#####&#####&##&###&",
"####&###&####&######&#####&#######&####&####&#####&#####&##&###&",
"####&###&####&######&#####&#######&####&####&#####&#####&##&###&",
"####&###&####&######&#####&#######&####&####&#####&#####&##&###&",
"####&###&####&######&#####&#######&####&####&#####&#####&##&###&",
"####&###&####&######&#####&#######&####&####&#####&#####&##&###&",
"####&###&####&######&#####&#######&####&####&#####&#####&##&###&",
"####&###&####&######&#####&#######&####&####&#####&#####&##&###&",
"####&###&####&######&#####&#######&####&####&#####&#####&##&###&",
"####&###&####&######&#####&#######&####&####&#####&#####&##&###&",
"####&###&####&######&#####&#######&####&####&#####&#####&##&###&",
"####&###&####&######&#####&#######&####&####&#####&#####&##&###&",
"####&###&####&######&#####&#######&####&####&#####&#####&##&###&",
"####&###&####&######&#####&#######&####&####&#####&#####&##&###&"
};
